<svg width="46" height="46" viewBox="0 0 46 46" fill="none" xmlns="http://www.w3.org/2000/svg">
<path fill-rule="evenodd" clip-rule="evenodd" d="M23 3.81693C22.8759 4.03302 22.7368 4.28121 22.5742 4.57433L22.3646 4.95088L22.3153 5.03647C22.1485 5.34456 21.8703 5.85377 21.406 6.20679C20.9332 6.56623 20.362 6.69033 20.0303 6.76307L19.9362 6.78233L19.5297 6.87433C19.1531 6.95991 18.8472 7.02837 18.5883 7.0947C18.7573 7.30223 18.9777 7.56326 19.2644 7.89916L19.5425 8.22437L19.6067 8.29712C19.8378 8.56456 20.21 8.99247 20.3834 9.54874C20.5545 10.0965 20.4946 10.6613 20.4582 11.0165C20.4545 11.05 20.4509 11.0835 20.4475 11.117L20.4047 11.5513C20.3727 11.8792 20.3427 12.2073 20.3149 12.5355C20.5395 12.4371 20.792 12.3216 21.0937 12.1825L21.4767 12.0071L21.5622 11.9643C21.8703 11.8209 22.4031 11.5685 23 11.5685C23.5969 11.5685 24.1297 11.8209 24.4378 11.9664L24.5233 12.0071L24.9063 12.1825C25.2059 12.3216 25.4626 12.4393 25.6851 12.5355C25.6573 12.2073 25.6273 11.8792 25.5953 11.5513L25.5525 11.117C25.5491 11.0835 25.5455 11.05 25.5418 11.0165C25.5054 10.6592 25.4455 10.0965 25.6167 9.54874C25.7878 8.99247 26.1622 8.56456 26.3933 8.29712L26.4575 8.22437L26.7356 7.89916C27.0223 7.56326 27.2427 7.30223 27.4117 7.0947C27.1528 7.03051 26.8469 6.95991 26.4703 6.87433L26.0638 6.78233L25.9697 6.76093C25.638 6.69033 25.0668 6.56623 24.594 6.20465C24.1297 5.85377 23.8515 5.34456 23.6847 5.0386L23.6354 4.95088L23.4258 4.57433C23.2632 4.28121 23.1262 4.03302 23 3.81693ZM20.8904 1.17674C21.2584 0.695349 21.926 0 23 0C24.074 0 24.7416 0.695349 25.1096 1.17674C25.4626 1.6346 25.8156 2.27005 26.1793 2.9226L26.2286 3.01033L26.4382 3.38902L26.5602 3.60298L26.772 3.65219L27.1785 3.74419L27.2812 3.76558C27.9808 3.92605 28.6783 4.08223 29.2132 4.29405C29.8037 4.52726 30.6039 4.9787 30.9141 5.97358C31.218 6.94707 30.835 7.77293 30.5012 8.30567C30.191 8.79777 29.7203 9.34549 29.2389 9.90819L29.1747 9.98307L28.8966 10.3104L28.7211 10.518C28.7254 10.595 28.7361 10.6848 28.7468 10.8068L28.7896 11.2411L28.7981 11.3395C28.8709 12.0927 28.9415 12.8201 28.9158 13.402C28.8901 14.014 28.7447 14.9382 27.9145 15.5651C27.0587 16.2155 26.1173 16.0743 25.5182 15.901C24.9662 15.7448 24.3137 15.4432 23.6568 15.1415L23.5648 15.0987L23.1797 14.9211L23 14.8377L22.8181 14.9233L22.4352 15.0987L22.341 15.1415C21.6863 15.4432 21.0359 15.7448 20.4818 15.901C19.8827 16.0722 18.9413 16.2155 18.0855 15.5651C17.2575 14.9382 17.1099 14.014 17.0842 13.4042C17.0585 12.8201 17.127 12.0927 17.2019 11.3395L17.2104 11.2411L17.2532 10.8068L17.281 10.518C17.2223 10.4484 17.1631 10.3792 17.1034 10.3104L16.8253 9.98307L16.7611 9.90819C16.2797 9.34549 15.809 8.79563 15.4988 8.30354C15.165 7.77293 14.782 6.94707 15.0859 5.97144C15.394 4.98084 16.1963 4.52726 16.7868 4.29405C17.3217 4.08223 18.0192 3.92605 18.7188 3.76772L18.8193 3.74633L19.228 3.65219L19.442 3.60298L19.5618 3.38902L19.7714 3.01033L19.8207 2.9226C20.1844 2.27005 20.5374 1.6346 20.8904 1.17674ZM20.7556 17.1163H25.2444C26.6672 17.1163 27.8931 17.1163 28.8752 17.2489C29.9278 17.3901 30.9355 17.7089 31.7528 18.5262C32.5701 19.3435 32.8889 20.3513 33.0301 21.4039C33.1628 22.386 33.1628 23.6119 33.1628 25.0347V30.3108C33.5137 30.2038 33.8753 30.1354 34.2411 30.0861C35.2232 29.9535 36.4491 29.9535 37.8719 29.9535H38.0816C39.5044 29.9535 40.7303 29.9535 41.7124 30.0861C42.765 30.2274 43.7727 30.5461 44.59 31.3634C45.4073 32.1807 45.7261 33.1885 45.8674 34.2411C46 35.2232 46 36.4491 46 37.8719V44.3954C46 44.8209 45.8309 45.2291 45.53 45.53C45.2291 45.8309 44.8209 46 44.3954 46C43.9698 46 43.5616 45.8309 43.2607 45.53C42.9598 45.2291 42.7907 44.8209 42.7907 44.3954V37.9767C42.7907 36.4192 42.7864 35.4093 42.688 34.669C42.5939 33.9737 42.442 33.7554 42.32 33.6335C42.1981 33.5115 41.9798 33.3596 41.2845 33.2655C40.542 33.1671 39.5343 33.1628 37.9767 33.1628C36.4192 33.1628 35.4093 33.1671 34.669 33.2655C33.9737 33.3596 33.7554 33.5115 33.6335 33.6335C33.5115 33.7554 33.3596 33.9737 33.2655 34.669C33.1671 35.4114 33.1628 36.4192 33.1628 37.9767V44.3954C33.1628 44.8209 32.9937 45.2291 32.6928 45.53C32.3919 45.8309 31.9837 46 31.5581 46C31.1326 46 30.7244 45.8309 30.4235 45.53C30.1226 45.2291 29.9535 44.8209 29.9535 44.3954V25.1395C29.9535 23.582 29.9492 22.5721 29.8508 21.8318C29.7567 21.1365 29.6047 20.9182 29.4828 20.7963C29.3608 20.6743 29.1426 20.5224 28.4473 20.4283C27.7048 20.3299 26.6971 20.3256 25.1395 20.3256H20.8605C19.3029 20.3256 18.293 20.3299 17.5527 20.4283C16.8574 20.5224 16.6392 20.6743 16.5172 20.7963C16.3953 20.9182 16.2433 21.1365 16.1492 21.8318C16.0508 22.5742 16.0465 23.582 16.0465 25.1395V44.3954C16.0465 44.8209 15.8775 45.2291 15.5765 45.53C15.2756 45.8309 14.8674 46 14.4419 46C14.0163 46 13.6081 45.8309 13.3072 45.53C13.0063 45.2291 12.8372 44.8209 12.8372 44.3954C12.8372 42.8378 12.8329 41.8279 12.7345 41.0876C12.6404 40.3923 12.4885 40.174 12.3665 40.0521C12.2446 39.9301 12.0263 39.7782 11.331 39.6841C10.5886 39.5857 9.58084 39.5814 8.02326 39.5814C6.46567 39.5814 5.45581 39.5857 4.71554 39.6841C4.02019 39.7782 3.80195 39.9301 3.68 40.0521C3.55805 40.174 3.40614 40.3923 3.312 41.0876C3.21358 41.83 3.2093 42.8378 3.2093 44.3954C3.2093 44.8209 3.04024 45.2291 2.73931 45.53C2.43838 45.8309 2.03023 46 1.60465 46C1.17907 46 0.770922 45.8309 0.469992 45.53C0.169061 45.2291 0 44.8209 0 44.3954V44.2884C0 42.8677 7.45058e-08 41.6418 0.132651 40.6597C0.273861 39.6071 0.592651 38.5993 1.40995 37.782C2.22726 36.9647 3.23712 36.646 4.28763 36.5047C5.26967 36.3721 6.49563 36.3721 7.91842 36.3721H8.12809C9.55088 36.3721 10.7768 36.3721 11.7589 36.5047C12.1247 36.554 12.4863 36.6246 12.8372 36.7294V25.0347C12.8372 23.6119 12.8372 22.386 12.9699 21.4039C13.1111 20.3513 13.4299 19.3435 14.2472 18.5262C15.0645 17.7089 16.0743 17.3901 17.1248 17.2489C18.1069 17.1163 19.3328 17.1163 20.7556 17.1163Z" fill="black"/>
</svg>
